<svg xmlns="http://www.w3.org/2000/svg" viewBox="0 0 360 98" fill="none" role="img" aria-label="MyDeenMarket logo">
  <defs>
    <linearGradient id="mdm-gold" x1="0" y1="0" x2="1" y2="1">
      <stop offset="0" stop-color="#f4e0aa"/>
      <stop offset="0.45" stop-color="#d4a853"/>
      <stop offset="1" stop-color="#9e6e22"/>
    </linearGradient>
    <linearGradient id="mdm-teal" x1="0" y1="0" x2="1" y2="1">
      <stop offset="0" stop-color="#0f6c5d"/>
      <stop offset="1" stop-color="#0a3a34"/>
    </linearGradient>
  </defs>

  <g transform="translate(10 8)">
    <circle cx="40" cy="40" r="36" fill="url(#mdm-teal)"/>
    <circle cx="40" cy="40" r="31" stroke="url(#mdm-gold)" stroke-width="2.2" opacity="0.9"/>

    <path d="M26 56V33C26 22.4 32.4 16 40 14.6C47.6 16 54 22.4 54 33V56" stroke="url(#mdm-gold)" stroke-width="2.6" stroke-linecap="round"/>
    <path d="M18 57C18 57 28 51.5 40 51.5C52 51.5 62 57 62 57" stroke="url(#mdm-gold)" stroke-width="2.7" stroke-linecap="round"/>
    <path d="M23 57V29.5C27.8 27.4 34.1 27.8 40 31.2" stroke="url(#mdm-gold)" stroke-width="2.4" stroke-linecap="round"/>
    <path d="M57 57V29.5C52.2 27.4 45.9 27.8 40 31.2" stroke="url(#mdm-gold)" stroke-width="2.4" stroke-linecap="round"/>
    <path d="M34.5 25.2a5.8 5.8 0 1 1 0 11.6a4.3 4.3 0 1 0 0-11.6Z" fill="url(#mdm-gold)"/>
    <path d="M47.4 25.6l0.9 1.9l2.1 0.3l-1.5 1.4l0.4 2.1l-1.9-1.1l-1.9 1.1l0.4-2.1l-1.5-1.4l2.1-0.3l0.9-1.9Z" fill="url(#mdm-gold)"/>
  </g>

  <g transform="translate(104 12)">
    <text x="0" y="40" font-family="Georgia, Times New Roman, serif" font-size="40" font-weight="700" fill="#0f202d" letter-spacing="-0.9">
      MyDeen<tspan fill="#a9762b">Market</tspan>
    </text>
    <path d="M2 50H216" stroke="#d7b063" stroke-width="1.3" opacity="0.55"/>
    <text x="3" y="66" font-family="Trebuchet MS, Arial, sans-serif" font-size="10.5" font-weight="700" fill="#0f5d50" letter-spacing="3.7">
      ISLAMIC BOOKS AND ESSENTIALS
    </text>
  </g>
</svg>
